<?xml version="1.0" standalone="no"?>
<!DOCTYPE svg PUBLIC "-//W3C//DTD SVG 20010904//EN"
 "http://www.w3.org/TR/2001/REC-SVG-20010904/DTD/svg10.dtd">
<svg version="1.0" xmlns="http://www.w3.org/2000/svg"
 width="150.000000pt" height="150.000000pt" viewBox="0 0 150.000000 150.000000"
 preserveAspectRatio="xMidYMid meet">
<metadata>
Created by potrace 1.11, written by Peter Selinger 2001-2013
</metadata>
<g transform="translate(0.000000,150.000000) scale(0.100000,-0.100000)"
fill="#000000" stroke="none">
<path d="M644 1453 c-21 -27 -21 -27 -48 -9 -15 9 -29 16 -31 14 -1 -2 -8 -13
-14 -26 -9 -16 -18 -21 -29 -17 -9 4 -22 9 -29 12 -7 3 -18 -9 -25 -26 -12
-30 -14 -30 -40 -17 -30 16 -38 12 -38 -20 0 -30 -12 -36 -44 -24 -19 7 -26 6
-28 -3 0 -6 -2 -16 -3 -22 -2 -5 -3 -16 -4 -23 -1 -9 -12 -12 -33 -10 -29 3
-33 0 -30 -20 5 -32 -13 -50 -43 -44 -24 4 -25 2 -20 -31 6 -33 4 -36 -22 -39
-25 -3 -28 -7 -25 -36 1 -22 -3 -34 -13 -37 -8 -3 -22 -7 -30 -10 -12 -4 -13
-9 -3 -31 11 -22 10 -28 -6 -40 -11 -7 -23 -15 -29 -17 -6 -2 -3 -14 7 -30 18
-26 17 -26 -12 -44 l-30 -18 20 -25 c20 -24 20 -24 -1 -41 -26 -21 -26 -31 -1
-54 20 -18 20 -18 -8 -42 -23 -20 -25 -25 -12 -33 46 -29 46 -28 22 -53 l-23
-25 28 -20 c25 -18 26 -23 16 -41 -19 -30 -16 -38 13 -45 26 -7 27 -14 9 -58
-5 -12 1 -18 25 -23 31 -7 32 -10 13 -62 -3 -8 4 -14 16 -14 18 -1 32 -4 45
-8 2 0 0 -16 -4 -35 -7 -34 -7 -34 26 -31 32 2 34 1 34 -31 0 -32 2 -34 33
-32 22 2 32 -1 33 -12 1 -8 2 -23 3 -32 1 -13 8 -16 35 -11 32 5 35 3 38 -23
3 -30 7 -31 46 -19 16 4 24 2 27 -9 16 -52 13 -50 40 -32 27 18 45 14 45 -10
0 -23 29 -28 51 -9 19 18 20 18 34 -1 8 -10 15 -25 15 -32 0 -9 10 -6 32 9
l31 23 21 -25 21 -25 21 25 c20 23 21 23 47 6 26 -17 27 -17 46 6 18 22 19 22
45 6 26 -17 26 -17 36 7 12 33 24 38 46 21 27 -20 32 -19 39 15 7 31 10 32 63
13 7 -3 14 7 18 26 6 29 9 31 40 25 30 -5 33 -4 36 23 2 20 9 28 23 29 11 1
26 2 33 3 6 1 12 14 12 31 0 27 3 30 31 30 31 0 31 1 26 35 -5 30 -3 35 14 36
40 3 44 5 40 24 -8 44 -6 50 22 53 29 4 31 9 12 55 -6 13 0 20 24 28 l31 11
-17 31 c-9 18 -12 32 -6 34 6 2 19 10 29 17 18 14 18 15 1 33 -22 26 -22 40 3
48 25 8 25 16 -1 44 l-21 22 21 23 21 22 -22 22 -22 22 22 30 c15 20 18 30 10
30 -7 0 -21 7 -32 15 -17 13 -17 15 -2 37 21 30 20 35 -9 42 -28 7 -29 13 -16
50 9 22 7 26 -19 35 -26 9 -29 13 -24 40 4 20 2 31 -5 32 -6 1 -15 3 -21 4 -5
1 -14 3 -19 4 -6 0 -7 17 -4 36 5 30 3 34 -14 31 -29 -6 -45 8 -45 38 0 23 -5
26 -34 26 -31 0 -34 2 -34 31 0 30 -1 31 -34 25 -34 -6 -35 -5 -42 29 -4 24
-10 33 -18 27 -31 -24 -47 -22 -58 9 -8 22 -15 28 -27 23 -40 -16 -47 -15 -59
11 -12 25 -12 25 -38 8 -26 -17 -27 -17 -49 11 l-23 29 -13 -22 c-17 -27 -34
-27 -53 1 l-16 22 -25 -24 -25 -23 -23 21 -23 22 -20 -27z"/>
</g>
</svg>
